<?xml version="1.0" standalone="no"?>
<!DOCTYPE svg PUBLIC "-//W3C//DTD SVG 20010904//EN"
 "http://www.w3.org/TR/2001/REC-SVG-20010904/DTD/svg10.dtd">
<svg version="1.0" xmlns="http://www.w3.org/2000/svg"
 width="1095.000000pt" height="307.000000pt" viewBox="0 0 1095.000000 307.000000"
 preserveAspectRatio="xMidYMid meet">
<metadata>
Created by potrace 1.16, written by Peter Selinger 2001-2019
</metadata>
<g transform="translate(0.000000,307.000000) scale(0.100000,-0.100000)"
fill="#000000" stroke="none">
<path d="M1361 3014 c-515 -80 -964 -440 -1165 -933 -14 -35 -40 -118 -57
-185 -30 -111 -32 -137 -37 -321 -5 -215 1 -273 45 -440 108 -415 413 -775
817 -965 405 -192 902 -184 1305 19 331 168 591 454 724 801 71 183 101 345
101 540 0 622 -377 1171 -964 1403 -218 86 -528 119 -769 81z m458 -279 c162
-31 320 -96 466 -193 93 -62 258 -228 324 -326 364 -545 242 -1270 -277 -1661
-225 -169 -454 -245 -737 -245 -256 0 -461 60 -675 199 -106 68 -278 239 -345
341 -315 484 -263 1103 128 1516 179 190 394 310 647 364 111 24 354 26 469 5z"/>
<path d="M1644 2257 c-27 -29 -103 -111 -170 -182 -66 -72 -177 -191 -245
-265 l-126 -135 -123 -3 c-72 -1 -129 -7 -137 -14 -10 -8 -13 -40 -11 -132 l3
-121 126 -3 126 -3 74 -77 c41 -42 122 -128 179 -191 58 -63 114 -124 125
-135 11 -12 69 -74 129 -139 59 -64 111 -117 116 -117 11 0 190 170 190 181 0
4 -94 111 -210 236 -115 125 -210 231 -210 235 0 4 161 9 358 10 l357 3 43
124 c23 68 39 127 36 130 -3 3 -183 8 -401 11 l-394 5 196 210 c108 116 204
221 213 234 16 24 16 25 -73 108 -49 45 -96 83 -105 83 -10 0 -39 -24 -66 -53z"/>
<path d="M3511 2033 c-24 -21 -91 -207 -91 -253 0 -22 6 -33 23 -39 12 -5 69
-31 127 -58 58 -27 144 -67 193 -88 48 -22 87 -42 87 -45 0 -3 -95 -57 -212
-120 -116 -64 -216 -123 -222 -133 -8 -13 -3 -41 23 -119 19 -57 43 -112 53
-123 18 -19 31 -20 504 -20 569 0 514 -14 514 131 0 73 -3 94 -17 105 -13 11
-88 15 -352 19 l-335 5 204 78 c114 44 213 88 223 99 21 24 24 135 5 161 -7 9
-96 46 -198 82 -102 37 -189 71 -194 76 -6 5 104 9 287 9 l297 0 15 23 c8 13
29 63 45 112 22 66 27 91 19 102 -9 10 -103 13 -494 13 -445 0 -484 -1 -504
-17z"/>
<path d="M4636 2034 c-20 -20 -23 -203 -4 -222 7 -7 42 -12 88 -12 46 0 81 -5
88 -12 9 -9 12 -105 12 -368 0 -195 4 -361 8 -368 11 -16 160 -26 222 -15 l45
9 5 374 5 375 229 3 c160 2 233 -1 242 -9 11 -9 14 -79 14 -376 0 -337 1 -364
18 -371 9 -4 68 -7 130 -7 89 0 115 3 122 15 6 9 10 168 10 383 l0 367 63 0
c35 0 71 6 80 13 20 15 79 181 75 210 l-3 22 -717 3 c-641 2 -718 0 -732 -14z"/>
<path d="M6216 2034 c-12 -12 -16 -37 -16 -105 0 -135 -9 -129 178 -129 110 0
162 -4 170 -12 9 -9 12 -79 12 -254 l0 -242 -137 -6 c-76 -4 -145 -10 -153
-15 -18 -10 -79 -165 -79 -202 l-1 -27 158 -7 c86 -4 303 -5 481 -3 299 5 325
7 338 24 19 27 18 183 -3 212 -14 21 -22 22 -163 22 -114 0 -151 3 -160 14 -8
9 -11 85 -9 252 l3 239 137 5 c75 3 142 10 147 15 5 6 26 55 45 110 25 72 32
103 24 112 -8 10 -115 13 -484 13 -416 0 -474 -2 -488 -16z"/>
<path d="M7369 2033 c-11 -13 -15 -100 -17 -447 -2 -237 1 -456 5 -486 l8 -55
68 -9 c38 -5 96 -5 135 0 l67 9 5 165 5 165 119 19 c83 14 123 17 135 9 16
-10 89 -119 176 -266 26 -42 55 -81 64 -86 47 -26 321 -24 321 1 0 9 -118 198
-308 496 -13 20 -13 25 0 40 8 9 52 78 97 152 46 74 105 169 131 210 35 54 45
78 38 88 -13 15 -236 17 -270 1 -13 -5 -41 -38 -62 -72 -22 -34 -49 -78 -61
-97 -13 -19 -46 -72 -75 -117 -46 -74 -55 -83 -88 -88 -20 -4 -59 -11 -85 -16
-74 -14 -124 -12 -131 7 -3 9 -6 95 -6 193 0 124 -4 181 -12 189 -8 8 -51 12
-129 12 -96 0 -119 -3 -130 -17z"/>
<path d="M8520 2034 c0 -15 100 -168 337 -517 52 -75 96 -144 99 -152 4 -8
-33 -73 -85 -153 -50 -76 -91 -146 -91 -154 0 -13 17 -18 84 -23 116 -10 205
1 227 29 9 11 87 127 174 256 87 129 227 337 312 462 84 125 153 236 153 247
0 20 -5 21 -129 21 -71 0 -141 -4 -154 -9 -16 -6 -74 -83 -167 -221 -79 -116
-147 -213 -150 -215 -4 -3 -70 88 -146 201 -76 113 -149 215 -163 225 -21 17
-41 19 -162 19 -122 0 -139 -2 -139 -16z"/>
<path d="M9838 2039 c-17 -9 -18 -44 -18 -493 0 -437 2 -485 17 -497 23 -20
223 -20 246 0 14 11 17 33 17 117 l0 103 38 10 c20 5 102 21 182 35 80 15 168
31 195 37 28 5 105 20 173 33 68 13 129 29 135 35 9 9 13 98 15 305 3 259 1
296 -13 310 -15 14 -68 16 -493 16 -305 0 -483 -4 -494 -11z m712 -248 c14
-28 13 -164 -2 -184 -12 -15 -43 -22 -328 -78 -31 -6 -69 -9 -85 -7 l-30 3 -3
129 c-2 86 1 133 9 142 9 11 54 14 220 14 196 0 209 -1 219 -19z"/>
</g>
</svg>
