<svg version="1.1"
	 id="Layer_1"
	 class = 'chebaturochka-logos'
	 fill="none"
	 stroke-width="1px"
	 xmlns="http://www.w3.org/2000/svg"
	 xmlns:xlink="http://www.w3.org/1999/xlink" x="0px" y="0px"
	 viewBox="0 0 701.33 501.33"
	 xml:space="preserve">
<style type="text/css">
	.st0,.st1, .st2, .st3, .st4, .st5. {
	opacity:0;
    animation: webSvgDash 3s ease forwards;
}

@keyframes webSvgDash {
    0% {
opacity: 0;
    }
 100% {
     opacity: 1;
    }
}

	.st0{fill:none;}
	.st1{fill:#0064BF;
	stroke:#0064BF;}
	.st2{fill:#FFFFFF;
	stroke:#FFFFFF;}
	.st3{fill:#E1001E;
	stroke:#E1001E;}
	.st4{fill:#FF6A00;
	stroke:#FF6A00;}
	.st5{fill:#572515;
	stroke:#572515;}
</style>
<g>
	<g>
		<path  class="st0" d="M332.04,139.8c-30.64,0-55.47,24.84-55.47,55.47c0,15.89,6.69,30.2,17.39,40.32
			c-7.18-8.59-11.5-19.65-11.5-31.72c0-16.48,8.06-31.07,20.44-40.07c-0.72-2.32-0.17-4.97,2.31-6.77c3.81-2.77,8.81,0.49,9.17,0.51
			c0.35,0.02-1.94-3.1,0.05-5.01c1.83-1.76,6.03-0.89,8.92,2.6c2.81-0.49,5.69-0.77,8.64-0.77c27.35,0,49.53,22.17,49.53,49.53
			c0,12.35-4.53,23.64-12.01,32.31c11.07-10.14,18.01-24.71,18.01-40.91C387.52,164.64,362.68,139.8,332.04,139.8z"/>
		<path class="st1" d="M353.67,200.96c-0.01-0.01-0.03,0-0.04-0.01c0,0.01,0.01,0.01,0.01,0.02
			C353.65,200.96,353.66,200.96,353.67,200.96z"/>
		<path class="st1" d="M331.99,154.34c-2.95,0-5.83,0.27-8.64,0.77c0.25,0.3,0.5,0.62,0.72,0.96c2.17,3.25,3.33,6.59,3.84,8.32
			c2.51-0.13,7.84,0.55,12.02,7.75c5.67,9.75,6.91,15.97,10.88,23.99c0.44,0.88,1,1.85,1.65,2.92c0.12-0.22,0.29-0.42,0.53-0.54
			c0.53-0.27,1.14-0.12,1.52,0.3c0.04,0.02,0.09,0.01,0.13,0.03c0.58,0.29,0.81,0.99,0.52,1.56c-0.16,0.32-0.44,0.52-0.76,0.6
			c0.11,0.04,0.22,0.07,0.32,0.14c0.05,0.04,0.08,0.09,0.12,0.13c0.25-0.1,0.52-0.13,0.79-0.04c0.61,0.2,0.94,0.86,0.74,1.48
			c-0.1,0.32-0.33,0.55-0.61,0.68c0.49,0.28,0.76,0.86,0.63,1.44c-0.03,0.14-0.09,0.27-0.16,0.38c3.95,6.81,8.49,16.5,9.83,30.98
			c0.09,0.94,0.14,1.86,0.15,2.76c1.13-0.89,2.24-1.81,3.3-2.78c7.48-8.67,12.01-19.96,12.01-32.31
			C381.52,176.52,359.34,154.34,331.99,154.34z"/>
		<path class="st1" d="M304.55,210.83c-0.47-0.09-0.85-0.48-0.86-0.98c-0.02-0.54,0.38-0.98,0.9-1.06
			c-0.03-0.21-0.02-0.42,0.08-0.62c0.12-0.24,0.32-0.41,0.56-0.51c0.02-0.12,0.04-0.24,0.1-0.35c0.33-0.62,1.1-0.85,1.71-0.52
			c0.12,0.07,0.22,0.16,0.31,0.26c2.4-3.99,3.89-8.58,5.17-13.06c1.95-6.87,3.58-17.97,5.49-23.08c0.71-1.89,2.05-3.24,3.46-4.2
			c-1.28,0.14-2.74,0.44-4.25,0.97c-3.25,1.14-9.21,1.91-12.16-0.61c-1.03-0.88-1.78-2.03-2.16-3.28
			c-12.38,9-20.44,23.59-20.44,40.07c0,12.07,4.32,23.13,11.5,31.72c0.68,0.64,1.38,1.27,2.09,1.88c1.3-10.88,4.93-21.35,7.95-25.8
			C304.06,211.32,304.25,211.02,304.55,210.83z"/>
		<path class="st2" d="M305.76,209.66c0.01,0.03,0.02,0.06,0.02,0.1c0.2-0.14,0.43-0.23,0.67-0.24c0.02-0.09,0.04-0.17,0.07-0.26
			c0.02-0.04,0.04-0.07,0.06-0.11c-0.03,0-0.05,0.01-0.08,0.01C306.35,209.44,306.07,209.61,305.76,209.66z"/>
		<path class="st2" d="M353.64,200.97c0-0.01-0.01-0.01-0.01-0.02c0,0,0,0-0.01,0c-0.03,0-0.07-0.01-0.1-0.01
			c0.03,0.01,0.05,0.03,0.08,0.05C353.62,200.98,353.63,200.97,353.64,200.97z"/>
		<path class="st2" d="M366.05,236.21c-1.34-14.48-5.88-24.17-9.83-30.98c-0.26,0.43-0.75,0.69-1.26,0.63
			c-0.04,0.21-0.13,0.4-0.26,0.57c0.18-0.02,0.37-0.01,0.55,0.03c0.79,0.21,1.27,1.02,1.06,1.81c-0.21,0.8-1.01,1.27-1.81,1.07
			c-0.09-0.02-0.17-0.06-0.25-0.09c0.07,0.43-0.04,0.87-0.29,1.22c0.3-0.08,0.63-0.08,0.95,0.03c0.86,0.29,1.32,1.23,1.02,2.09
			s-1.23,1.32-2.09,1.03c-0.86-0.29-1.32-1.23-1.02-2.09c0.05-0.16,0.14-0.3,0.23-0.43c-0.67,0.19-1.42-0.07-1.82-0.69
			c-0.08-0.12-0.13-0.25-0.18-0.38c-0.32,0.37-0.79,0.62-1.32,0.64c-1.02,0.04-1.88-0.76-1.91-1.78c-0.04-1.02,0.76-1.88,1.78-1.92
			c0.88-0.03,1.63,0.56,1.85,1.38c0.08-0.08,0.17-0.15,0.27-0.22c0.52-0.34,1.16-0.34,1.67-0.06c-0.02-0.17-0.01-0.35,0.03-0.53
			c0.05-0.2,0.14-0.38,0.26-0.53c-0.38,0.04-0.75-0.06-1.06-0.31c-0.2,0.16-0.43,0.28-0.69,0.33c-0.9,0.19-1.78-0.38-1.97-1.28
			c-0.19-0.9,0.38-1.78,1.28-1.97c0.6-0.13,1.19,0.09,1.57,0.52c0.31-0.18,0.66-0.22,1-0.15c0.09-0.28,0.27-0.51,0.5-0.67
			c-0.23,0.07-0.47,0.09-0.71,0.03c-0.09,0.05-0.18,0.1-0.28,0.14c-0.76,0.28-1.61-0.11-1.89-0.88s0.11-1.61,0.88-1.89
			c0.2-0.07,0.41-0.1,0.61-0.08c-0.22-0.12-0.41-0.29-0.54-0.53c-0.2-0.39-0.15-0.83,0.04-1.19c-0.65-1.07-1.21-2.04-1.65-2.92
			c-3.97-8.02-5.21-14.24-10.88-23.99c-4.18-7.2-9.52-7.88-12.02-7.75c0.16,0.55,0.26,0.95,0.31,1.11c0.56,2.17-1.74,1.49-3.25,1.21
			c-0.77-0.14-2.01-0.17-3.5-0.01c-1.41,0.96-2.76,2.31-3.46,4.2c-1.91,5.11-3.54,16.21-5.49,23.08c-1.27,4.48-2.76,9.07-5.17,13.06
			c0.33,0.35,0.43,0.86,0.25,1.32c0.27-0.05,0.55-0.03,0.82,0.08c0.74,0.3,1.1,1.15,0.81,1.89c-0.26,0.64-0.92,1-1.58,0.89
			c0,0.01,0,0.01,0,0.02c-0.22,0.51-0.74,0.78-1.27,0.73c-0.06,0.59-0.51,1.08-1.12,1.11c-0.68,0.04-1.26-0.47-1.3-1.15
			c-0.01-0.09,0.02-0.18,0.04-0.27c-3.01,4.46-6.65,14.92-7.95,25.8c9.69,8.27,22.25,13.28,35.99,13.28
			c12.89,0,24.74-4.41,34.16-11.78C366.19,238.07,366.14,237.15,366.05,236.21z M350.37,212.01c0.95-0.34,2,0.15,2.34,1.1
			s-0.15,2-1.1,2.35s-2-0.15-2.34-1.1C348.93,213.41,349.42,212.36,350.37,212.01z M350.41,217.7c0.09,1.11-0.74,2.09-1.85,2.18
			c-1.11,0.09-2.08-0.74-2.17-1.85s0.74-2.09,1.85-2.18C349.35,215.76,350.32,216.59,350.41,217.7z M344.91,211.84
			c0.19-1.11,1.24-1.86,2.35-1.66s1.85,1.25,1.66,2.36c-0.19,1.11-1.24,1.86-2.35,1.66S344.72,212.95,344.91,211.84z M331.13,169.79
			c0.66-0.19,1.38,0.28,1.61,1.06c0.23,0.78-0.11,1.57-0.77,1.77s-1.38-0.28-1.61-1.06C330.13,170.78,330.47,169.99,331.13,169.79z
			 M324.97,216.85c1.17-0.63,2.63-0.19,3.26,0.98c0.63,1.17,0.19,2.64-0.98,3.27c-1.17,0.63-2.63,0.19-3.26-0.98
			S323.8,217.49,324.97,216.85z M321.38,172.19c0.6-0.32,1.4,0,1.79,0.72c0.38,0.72,0.21,1.56-0.4,1.89c-0.6,0.32-1.4,0-1.79-0.72
			S320.77,172.52,321.38,172.19z M320.41,215.97c1.17-0.35,2.41,0.32,2.75,1.5c0.35,1.18-0.32,2.41-1.49,2.76
			c-1.17,0.35-2.41-0.32-2.75-1.5S319.24,216.32,320.41,215.97z M316.55,214.47c1.11-0.1,2.1,0.72,2.2,1.84
			c0.1,1.12-0.72,2.1-1.83,2.2c-1.11,0.1-2.1-0.72-2.2-1.84C314.61,215.56,315.43,214.58,316.55,214.47z M313.04,218.03
			c1,0.09,1.75,0.97,1.66,1.98c-0.09,1.01-0.97,1.75-1.98,1.67s-1.75-0.97-1.66-1.98S312.04,217.94,313.04,218.03z M309.7,218.29
			c-0.88-0.21-1.42-1.09-1.22-1.97c0.21-0.88,1.08-1.43,1.96-1.22c0.88,0.21,1.42,1.09,1.22,1.97
			C311.46,217.95,310.58,218.49,309.7,218.29z M316.28,220.68c1.11-0.11,2.1,0.71,2.2,1.82c0.11,1.11-0.71,2.1-1.82,2.21
			c-1.11,0.11-2.1-0.71-2.2-1.82C314.36,221.78,315.17,220.79,316.28,220.68z M313.29,212.58c1.01,0.09,1.75,0.98,1.66,1.99
			c-0.09,1.01-0.98,1.75-1.99,1.66s-1.75-0.98-1.66-1.99C311.39,213.23,312.28,212.49,313.29,212.58z M304.6,214.98
			c-0.1-0.77,0.43-1.47,1.2-1.58c0.26-0.04,0.51,0.01,0.74,0.11c0-0.15,0.02-0.3,0.07-0.44c0.26-0.75,1.08-1.15,1.83-0.88
			c0.04,0.02,0.08,0.04,0.12,0.06c-0.02-0.18-0.01-0.37,0.04-0.56c0.22-0.88,1.11-1.41,1.99-1.19c0.88,0.22,1.41,1.12,1.19,2
			c-0.22,0.88-1.11,1.41-1.99,1.19c-0.14-0.04-0.27-0.09-0.39-0.16c0,0.17-0.02,0.33-0.08,0.5c-0.26,0.75-1.08,1.15-1.83,0.88
			c-0.04-0.01-0.08-0.04-0.12-0.06c-0.03,0.67-0.53,1.24-1.21,1.33C305.4,216.29,304.7,215.75,304.6,214.98z M305.74,218.66
			c-0.2-0.85,0.32-1.69,1.16-1.9c0.84-0.2,1.69,0.32,1.89,1.16s-0.32,1.69-1.16,1.9S305.95,219.51,305.74,218.66z M307.55,222.67
			c-0.35-0.9,0.1-1.91,0.99-2.26c0.9-0.35,1.91,0.1,2.25,0.99c0.35,0.9-0.1,1.91-0.99,2.26
			C308.91,224.02,307.9,223.57,307.55,222.67z M312.83,227.36c-0.9,0.55-2.08,0.26-2.63-0.64c-0.55-0.91-0.26-2.09,0.64-2.64
			c0.9-0.55,2.08-0.26,2.63,0.64S313.73,226.81,312.83,227.36z M316.81,230.54c-0.83,0.8-2.15,0.76-2.95-0.07s-0.76-2.16,0.07-2.96
			s2.15-0.76,2.95,0.07C317.68,228.42,317.65,229.74,316.81,230.54z M321.84,232.84c-0.67,1.05-2.07,1.36-3.12,0.69
			c-1.05-0.67-1.36-2.07-0.69-3.13c0.67-1.05,2.07-1.36,3.12-0.69C322.2,230.39,322.51,231.79,321.84,232.84z M321.6,227.01
			c-1.16,0.38-2.41-0.26-2.79-1.43c-0.38-1.17,0.26-2.42,1.42-2.8s2.41,0.26,2.79,1.43C323.4,225.38,322.77,226.63,321.6,227.01z
			 M327.94,233.99c-0.43,1.28-1.81,1.96-3.08,1.53s-1.96-1.81-1.53-3.09c0.43-1.28,1.81-1.96,3.08-1.53S328.37,232.72,327.94,233.99
			z M327.54,228.19c-1.14,0.69-2.62,0.33-3.31-0.81c-0.69-1.14-0.33-2.62,0.81-3.32c1.14-0.69,2.62-0.33,3.31,0.81
			C329.04,226.01,328.67,227.49,327.54,228.19z M326.24,178.55c-0.81-0.62-1.21-1.58,0.08-2.85c0.76-0.74,3.14-1.28,4.46-0.5
			c0.98,0.57,0.46,1.94,0.14,3.19c-0.4,1.57-0.76,1.97-1.59,1.67C328.99,179.93,327.05,179.17,326.24,178.55z M330.32,216.87
			c1.1-0.92,2.75-0.77,3.66,0.34c0.92,1.11,0.77,2.75-0.34,3.67c-1.1,0.92-2.75,0.77-3.66-0.34
			C329.06,219.44,329.21,217.79,330.32,216.87z M335.2,233.76c-0.15,1.43-1.43,2.47-2.86,2.32c-1.43-0.15-2.46-1.44-2.31-2.87
			c0.15-1.43,1.43-2.47,2.86-2.32C334.32,231.04,335.35,232.32,335.2,233.76z M334.46,227.92c-1.03,1-2.68,0.97-3.68-0.06
			c-1-1.04-0.97-2.69,0.06-3.69c1.03-1,2.68-0.97,3.68,0.06C335.52,225.26,335.49,226.91,334.46,227.92z M336.3,216.07
			c0.8-1.06,2.32-1.27,3.38-0.47c1.06,0.81,1.27,2.32,0.47,3.39s-2.32,1.27-3.38,0.47C335.7,218.65,335.49,217.14,336.3,216.07z
			 M337.38,223.17c0.66-1.15,2.14-1.55,3.28-0.88s1.54,2.14,0.88,3.29c-0.66,1.15-2.14,1.55-3.28,0.88
			C337.1,225.8,336.71,224.33,337.38,223.17z M340.02,234.57c-1.33,0.21-2.58-0.71-2.79-2.04s0.7-2.59,2.04-2.8
			c1.33-0.21,2.58,0.71,2.79,2.04C342.27,233.11,341.35,234.36,340.02,234.57z M341.1,214.32c0.48-1.13,1.79-1.66,2.92-1.17
			c1.13,0.49,1.65,1.8,1.17,2.93c-0.48,1.13-1.79,1.66-2.92,1.17C341.14,216.76,340.62,215.45,341.1,214.32z M342.47,221.06
			c0.26-1.19,1.44-1.95,2.63-1.68c1.19,0.26,1.94,1.45,1.68,2.64s-1.44,1.95-2.63,1.68C342.96,223.43,342.21,222.25,342.47,221.06z
			 M345.99,231.5c-1.14,0.55-2.5,0.07-3.04-1.07s-0.07-2.51,1.07-3.05c1.14-0.55,2.5-0.07,3.04,1.07
			C347.61,229.59,347.13,230.96,345.99,231.5z M350.34,227.3c-0.88,0.78-2.22,0.7-3-0.18c-0.78-0.88-0.7-2.22,0.18-3
			c0.88-0.78,2.22-0.7,3,0.18C351.29,225.18,351.21,226.52,350.34,227.3z M353.24,222.47c-0.63,0.89-1.85,1.09-2.74,0.47
			c-0.88-0.63-1.09-1.86-0.46-2.74c0.63-0.89,1.85-1.09,2.74-0.47C353.66,220.35,353.87,221.58,353.24,222.47z M355.01,217.44
			c-0.43,0.9-1.51,1.28-2.41,0.85c-0.9-0.43-1.27-1.51-0.84-2.41c0.43-0.9,1.51-1.28,2.41-0.85
			C355.06,215.46,355.44,216.54,355.01,217.44z"/>
		<path class="st3" d="M305.06,167.07c2.95,2.51,8.9,1.75,12.16,0.61c1.51-0.53,2.97-0.82,4.25-0.97c1.48-0.17,2.72-0.13,3.5,0.01
			c1.51,0.27,3.82,0.96,3.25-1.21c-0.04-0.17-0.14-0.56-0.31-1.11c-0.51-1.73-1.67-5.08-3.84-8.32c-0.23-0.34-0.47-0.66-0.72-0.96
			c-2.89-3.49-7.09-4.36-8.92-2.6c-1.99,1.91,0.31,5.03-0.05,5.01c-0.35-0.02-5.36-3.27-9.17-0.51c-2.48,1.8-3.03,4.45-2.31,6.77
			C303.29,165.04,304.03,166.2,305.06,167.07z"/>
		<path class="st4" d="M330.93,178.39c0.32-1.25,0.84-2.62-0.14-3.19c-1.32-0.77-3.71-0.24-4.46,0.5c-1.29,1.26-0.89,2.22-0.08,2.85
			c0.81,0.62,2.74,1.39,3.1,1.51C330.17,180.36,330.52,179.96,330.93,178.39z"/>
		<path class="st3" d="M305.33,207.31c-0.06,0.11-0.08,0.23-0.1,0.35c0.27-0.11,0.57-0.11,0.85,0.02c0.52,0.26,0.74,0.89,0.48,1.41
			c-0.01,0.02-0.03,0.04-0.04,0.06c0.03,0,0.05,0,0.08-0.01c0.21-0.41,0.58-0.69,1.01-0.77c0.18-0.46,0.09-0.97-0.25-1.32
			c-0.09-0.1-0.19-0.19-0.31-0.26C306.42,206.46,305.66,206.69,305.33,207.31z"/>
		<path class="st3" d="M306.59,209.15c-0.02,0.04-0.04,0.07-0.06,0.11c-0.03,0.08-0.06,0.17-0.07,0.26
			c0.18-0.01,0.37,0.02,0.55,0.09c0.62,0.27,0.91,1,0.65,1.63c0.66,0.11,1.32-0.25,1.58-0.89c0.3-0.75-0.06-1.59-0.81-1.89
			c-0.27-0.11-0.56-0.13-0.82-0.08C307.17,208.46,306.8,208.74,306.59,209.15z"/>
		<path class="st3" d="M309.4,213.53c0.12,0.07,0.25,0.12,0.39,0.16c0.88,0.22,1.77-0.31,1.99-1.19c0.22-0.88-0.31-1.77-1.19-2
			c-0.88-0.22-1.77,0.31-1.99,1.19c-0.05,0.19-0.05,0.37-0.04,0.56C309.08,212.48,309.39,212.98,309.4,213.53z"/>
		<ellipse class="st3" cx="313.13" cy="214.41" rx="1.83" ry="1.84"/>
		<path class="st3" d="M316.91,218.51c1.11-0.1,1.93-1.09,1.83-2.2c-0.1-1.12-1.08-1.94-2.2-1.84s-1.93,1.09-1.83,2.2
			C314.82,217.79,315.8,218.61,316.91,218.51z"/>
		<path class="st3" d="M321.67,220.23c1.17-0.35,1.84-1.58,1.49-2.76c-0.35-1.18-1.58-1.85-2.75-1.5c-1.17,0.35-1.84,1.59-1.49,2.76
			S320.5,220.58,321.67,220.23z"/>
		<path class="st3" d="M327.25,221.11c1.17-0.63,1.61-2.1,0.98-3.27c-0.63-1.17-2.09-1.61-3.26-0.98c-1.17,0.63-1.61,2.1-0.98,3.27
			S326.08,221.74,327.25,221.11z"/>
		<path class="st3" d="M333.64,220.89c1.1-0.92,1.26-2.57,0.34-3.67c-0.92-1.11-2.56-1.26-3.66-0.34s-1.26,2.57-0.34,3.67
			C330.9,221.65,332.54,221.81,333.64,220.89z"/>
		<path class="st3" d="M340.14,218.99c0.8-1.06,0.6-2.58-0.47-3.39c-1.06-0.81-2.58-0.6-3.38,0.47s-0.6,2.58,0.47,3.39
			C337.83,220.27,339.34,220.06,340.14,218.99z"/>
		
			<ellipse transform="matrix(1.658774e-03 -1 1 1.658774e-03 127.3801 557.9865)" class="st3" cx="343.15" cy="215.2" rx="2.23" ry="2.22"/>
		<path class="st3" d="M346.57,214.2c1.11,0.19,2.16-0.55,2.35-1.66c0.19-1.11-0.55-2.17-1.66-2.36s-2.16,0.55-2.35,1.66
			C344.72,212.95,345.46,214.01,346.57,214.2z"/>
		<path class="st3" d="M351.47,208.34c-0.22-0.82-0.97-1.41-1.85-1.38c-1.02,0.04-1.82,0.89-1.78,1.92
			c0.04,1.02,0.89,1.82,1.91,1.78c0.53-0.02,1-0.26,1.32-0.64C350.88,209.44,351.02,208.78,351.47,208.34z"/>
		<path class="st3" d="M352.51,204.5c0.1-0.09,0.21-0.15,0.32-0.21c-0.38-0.43-0.97-0.65-1.57-0.52c-0.9,0.19-1.47,1.07-1.28,1.97
			c0.19,0.9,1.07,1.47,1.97,1.28c0.26-0.06,0.49-0.18,0.69-0.33c-0.05-0.04-0.11-0.06-0.15-0.1
			C351.92,206,351.93,205.07,352.51,204.5z"/>
		<path class="st3" d="M352.89,201.47c0.18-0.25,0.44-0.41,0.71-0.48c-0.03-0.02-0.05-0.03-0.08-0.05c-0.2-0.01-0.4-0.07-0.57-0.16
			c-0.2-0.01-0.41,0.01-0.61,0.08c-0.76,0.28-1.16,1.13-0.88,1.89s1.13,1.16,1.89,0.88c0.1-0.04,0.19-0.08,0.28-0.14
			c-0.15-0.04-0.3-0.1-0.43-0.19C352.61,202.88,352.47,202.06,352.89,201.47z"/>
		<path class="st3" d="M352.41,200.24c0.12,0.24,0.32,0.4,0.54,0.53c0.18,0.1,0.37,0.16,0.57,0.16c0.03,0,0.07,0.01,0.1,0.01
			c-0.01-0.01-0.02,0-0.03-0.01c-0.58-0.29-0.81-0.99-0.52-1.56c0.27-0.54,0.89-0.76,1.43-0.56c-0.38-0.42-0.99-0.57-1.52-0.3
			c-0.24,0.12-0.4,0.32-0.53,0.54C352.26,199.41,352.22,199.85,352.41,200.24z"/>
		<path class="st3" d="M305.76,209.66c0.31-0.05,0.58-0.22,0.75-0.5c0.01-0.02,0.03-0.03,0.04-0.06c0.26-0.52,0.04-1.16-0.48-1.41
			c-0.28-0.14-0.59-0.13-0.85-0.02c-0.23,0.09-0.44,0.26-0.56,0.51c-0.1,0.2-0.11,0.41-0.08,0.62c0.04-0.01,0.08-0.03,0.12-0.03
			C305.24,208.74,305.68,209.14,305.76,209.66z"/>
		<path class="st3" d="M307.01,209.61c-0.18-0.08-0.36-0.1-0.55-0.09c-0.25,0.01-0.47,0.1-0.67,0.24c0,0.01,0.01,0.02,0.01,0.02
			c0.01,0.37-0.18,0.69-0.47,0.89c0.58,0.07,1.04,0.52,1.08,1.12c0,0.07-0.02,0.12-0.03,0.19c0.52,0.05,1.04-0.22,1.27-0.73
			c0-0.01,0-0.01,0-0.02C307.91,210.61,307.63,209.88,307.01,209.61z"/>
		<path class="st3" d="M307.37,214.61c0.01,0.08,0.01,0.16,0.01,0.24c0.04,0.02,0.08,0.04,0.12,0.06c0.75,0.26,1.57-0.13,1.83-0.88
			c0.06-0.17,0.08-0.33,0.08-0.5c-0.01-0.54-0.33-1.05-0.84-1.28c-0.04-0.02-0.08-0.04-0.12-0.06c-0.75-0.26-1.57,0.13-1.83,0.88
			c-0.05,0.15-0.07,0.3-0.07,0.44C306.97,213.71,307.3,214.11,307.37,214.61z"/>
		<path class="st3" d="M310.44,215.1c-0.88-0.21-1.76,0.34-1.96,1.22c-0.21,0.88,0.34,1.76,1.22,1.97s1.76-0.34,1.96-1.22
			C311.87,216.19,311.32,215.31,310.44,215.1z"/>
		<path class="st3" d="M312.73,221.68c1,0.09,1.89-0.66,1.98-1.67c0.09-1.01-0.66-1.89-1.66-1.98s-1.89,0.66-1.98,1.67
			S311.72,221.59,312.73,221.68z"/>
		<path class="st3" d="M316.67,224.71c1.11-0.11,1.92-1.1,1.82-2.21c-0.11-1.11-1.09-1.93-2.2-1.82c-1.11,0.11-1.92,1.1-1.82,2.21
			C314.57,224.01,315.56,224.82,316.67,224.71z"/>
		<path class="st3" d="M320.24,222.79c-1.16,0.38-1.8,1.63-1.42,2.8c0.38,1.17,1.63,1.8,2.79,1.43c1.16-0.38,1.8-1.63,1.42-2.8
			C322.65,223.05,321.4,222.41,320.24,222.79z"/>
		<path class="st3" d="M325.04,224.06c-1.14,0.69-1.5,2.18-0.81,3.32c0.69,1.14,2.17,1.5,3.31,0.81c1.14-0.69,1.5-2.18,0.81-3.32
			C327.65,223.73,326.17,223.37,325.04,224.06z"/>
		<path class="st3" d="M330.84,224.17c-1.03,1-1.06,2.65-0.06,3.69c1,1.04,2.65,1.06,3.68,0.06s1.06-2.65,0.06-3.69
			C333.52,223.19,331.87,223.16,330.84,224.17z"/>
		<path class="st3" d="M338.25,226.47c1.15,0.67,2.62,0.27,3.28-0.88c0.66-1.15,0.27-2.63-0.88-3.29s-2.62-0.27-3.28,0.88
			C336.71,224.33,337.1,225.8,338.25,226.47z"/>
		<path class="st3" d="M344.15,223.7c1.19,0.26,2.37-0.49,2.63-1.68s-0.49-2.38-1.68-2.64c-1.19-0.26-2.37,0.49-2.63,1.68
			C342.21,222.25,342.96,223.43,344.15,223.7z"/>
		<path class="st3" d="M346.39,218.03c0.09,1.11,1.06,1.94,2.17,1.85c1.11-0.09,1.94-1.07,1.85-2.18s-1.06-1.94-2.17-1.85
			C347.13,215.94,346.3,216.92,346.39,218.03z"/>
		<path class="st3" d="M351.61,215.46c0.95-0.34,1.44-1.4,1.1-2.35s-1.39-1.45-2.34-1.1c-0.95,0.34-1.44,1.4-1.1,2.35
			C349.61,215.31,350.66,215.81,351.61,215.46z"/>
		<path class="st3" d="M353.41,208.06c-0.51-0.27-1.15-0.28-1.67,0.06c-0.1,0.06-0.19,0.14-0.27,0.22c-0.44,0.44-0.59,1.1-0.39,1.69
			c0.04,0.13,0.1,0.26,0.18,0.38c0.4,0.62,1.14,0.87,1.82,0.69c0.22-0.31,0.54-0.53,0.9-0.63c0.25-0.35,0.36-0.79,0.29-1.22
			C353.78,209.03,353.46,208.57,353.41,208.06z"/>
		<path class="st3" d="M353.8,204.25c0.01-0.04,0.03-0.08,0.04-0.12c-0.34-0.07-0.69-0.02-1,0.15c-0.11,0.06-0.23,0.12-0.32,0.21
			c-0.58,0.57-0.59,1.51-0.02,2.09c0.04,0.05,0.1,0.06,0.15,0.1c0.31,0.25,0.68,0.35,1.06,0.31c0.24-0.32,0.6-0.52,1-0.57
			c0.13-0.17,0.22-0.36,0.26-0.57c-0.05-0.01-0.11-0.01-0.16-0.02C354.08,205.68,353.64,204.97,353.8,204.25z"/>
		<path class="st3" d="M353.67,200.96c-0.01,0-0.02,0.01-0.03,0.01c-0.01,0-0.02,0.01-0.04,0.01c-0.28,0.08-0.54,0.23-0.71,0.48
			c-0.42,0.59-0.28,1.41,0.31,1.83c0.13,0.09,0.28,0.15,0.43,0.19c0.24,0.06,0.48,0.04,0.71-0.03c0.09-0.06,0.18-0.12,0.29-0.16
			c-0.42-0.29-0.64-0.81-0.47-1.32c0.11-0.34,0.37-0.58,0.68-0.7c-0.04-0.04-0.07-0.09-0.12-0.13c-0.1-0.07-0.21-0.1-0.32-0.14
			C354.16,201.07,353.91,201.06,353.67,200.96z"/>
		<path class="st3" d="M353.07,199.37c-0.29,0.58-0.05,1.28,0.52,1.56c0.01,0.01,0.02,0,0.03,0.01c0,0,0,0,0.01,0
			c0.01,0.01,0.02,0,0.04,0.01c0.24,0.1,0.49,0.11,0.73,0.05c0.32-0.08,0.6-0.28,0.76-0.6c0.29-0.58,0.05-1.28-0.52-1.56
			c-0.04-0.02-0.08-0.02-0.13-0.03C353.95,198.61,353.33,198.84,353.07,199.37z"/>
		<path class="st3" d="M305.11,210.64c0.08,0,0.14,0.02,0.22,0.03c0.29-0.2,0.48-0.52,0.47-0.89c0-0.01-0.01-0.02-0.01-0.02
			c0-0.04-0.02-0.06-0.02-0.1c-0.08-0.52-0.52-0.92-1.06-0.9c-0.04,0-0.08,0.02-0.12,0.03c-0.52,0.08-0.92,0.52-0.9,1.06
			c0.02,0.5,0.39,0.89,0.86,0.98C304.72,210.73,304.9,210.65,305.11,210.64z"/>
		<path class="st3" d="M305.33,210.67c-0.07-0.01-0.14-0.04-0.22-0.03c-0.21,0.01-0.39,0.09-0.56,0.19
			c-0.3,0.18-0.49,0.48-0.55,0.84c-0.01,0.09-0.04,0.18-0.04,0.27c0.04,0.68,0.62,1.19,1.3,1.15c0.61-0.04,1.07-0.52,1.12-1.11
			c0.01-0.06,0.03-0.12,0.03-0.19C306.37,211.19,305.9,210.74,305.33,210.67z"/>
		<path class="st3" d="M306.17,216.19c0.68-0.09,1.18-0.66,1.21-1.33c0-0.08,0-0.16-0.01-0.24c-0.07-0.5-0.4-0.91-0.83-1.1
			c-0.23-0.1-0.48-0.14-0.74-0.11c-0.77,0.1-1.3,0.81-1.2,1.58C304.7,215.75,305.4,216.29,306.17,216.19z"/>
		<path class="st3" d="M308.8,217.93c-0.2-0.85-1.05-1.37-1.89-1.16c-0.84,0.2-1.36,1.05-1.16,1.9c0.2,0.85,1.05,1.37,1.89,1.16
			S309,218.77,308.8,217.93z"/>
		<path class="st3" d="M310.8,221.41c-0.35-0.9-1.36-1.34-2.25-0.99c-0.9,0.35-1.34,1.36-0.99,2.26c0.35,0.9,1.36,1.34,2.25,0.99
			C310.71,223.32,311.15,222.31,310.8,221.41z"/>
		<path class="st3" d="M313.47,224.72c-0.55-0.91-1.73-1.19-2.63-0.64c-0.9,0.55-1.19,1.73-0.64,2.64c0.55,0.91,1.73,1.19,2.63,0.64
			C313.73,226.81,314.02,225.63,313.47,224.72z"/>
		<path class="st3" d="M313.94,227.5c-0.83,0.8-0.87,2.12-0.07,2.96s2.11,0.87,2.95,0.07c0.83-0.8,0.87-2.12,0.07-2.96
			C316.1,226.74,314.77,226.71,313.94,227.5z"/>
		<path class="st3" d="M321.15,229.72c-1.05-0.67-2.45-0.36-3.12,0.69c-0.67,1.05-0.36,2.45,0.69,3.13
			c1.05,0.67,2.45,0.36,3.12-0.69C322.51,231.79,322.2,230.39,321.15,229.72z"/>
		<path class="st3" d="M326.41,230.91c-1.27-0.43-2.65,0.26-3.08,1.53c-0.43,1.28,0.26,2.66,1.53,3.09s2.65-0.26,3.08-1.53
			S327.68,231.34,326.41,230.91z"/>
		<path class="st3" d="M332.89,230.89c-1.43-0.15-2.71,0.89-2.86,2.32c-0.15,1.43,0.88,2.72,2.31,2.87
			c1.43,0.15,2.71-0.89,2.86-2.32C335.35,232.32,334.32,231.04,332.89,230.89z"/>
		<path class="st3" d="M339.27,229.73c-1.33,0.21-2.24,1.46-2.04,2.8s1.46,2.25,2.79,2.04c1.33-0.21,2.24-1.46,2.04-2.8
			C341.85,230.44,340.6,229.52,339.27,229.73z"/>
		<path class="st3" d="M344.02,227.38c-1.14,0.55-1.62,1.91-1.07,3.05s1.91,1.62,3.04,1.07c1.14-0.55,1.62-1.91,1.07-3.05
			C346.52,227.31,345.16,226.83,344.02,227.38z"/>
		<path class="st3" d="M347.52,224.12c-0.88,0.78-0.96,2.12-0.18,3c0.78,0.88,2.12,0.96,3,0.18c0.88-0.78,0.96-2.12,0.18-3
			C349.74,223.42,348.4,223.34,347.52,224.12z"/>
		<path class="st3" d="M352.78,219.73c-0.88-0.63-2.11-0.42-2.74,0.47c-0.63,0.89-0.42,2.11,0.46,2.74
			c0.88,0.63,2.11,0.42,2.74-0.47C353.87,221.58,353.66,220.35,352.78,219.73z"/>
		<path class="st3" d="M354.17,215.03c-0.9-0.43-1.97-0.05-2.41,0.85c-0.43,0.9-0.05,1.98,0.84,2.41c0.9,0.43,1.97,0.05,2.41-0.85
			C355.44,216.54,355.06,215.46,354.17,215.03z"/>
		<path class="st3" d="M353.06,211.1c-0.1,0.13-0.18,0.27-0.23,0.43c-0.29,0.86,0.16,1.8,1.02,2.09c0.86,0.29,1.79-0.17,2.09-1.03
			s-0.16-1.8-1.02-2.09c-0.32-0.11-0.65-0.11-0.95-0.03C353.61,210.57,353.29,210.79,353.06,211.1z"/>
		<path class="st3" d="M353.7,207c-0.12,0.15-0.21,0.33-0.26,0.53c-0.05,0.18-0.05,0.36-0.03,0.53c0.05,0.51,0.37,0.97,0.85,1.19
			c0.08,0.04,0.16,0.07,0.25,0.09c0.79,0.21,1.6-0.27,1.81-1.07c0.21-0.8-0.27-1.61-1.06-1.81c-0.19-0.05-0.37-0.06-0.55-0.03
			C354.3,206.48,353.94,206.68,353.7,207z"/>
		<path class="st3" d="M354.89,203.46c-0.1-0.03-0.18-0.1-0.27-0.15c-0.1,0.04-0.2,0.09-0.29,0.16c-0.23,0.16-0.4,0.39-0.5,0.67
			c-0.01,0.04-0.03,0.08-0.04,0.12c-0.16,0.71,0.28,1.43,0.99,1.59c0.05,0.01,0.11,0.01,0.16,0.02c0.52,0.05,1-0.2,1.26-0.63
			c0.07-0.12,0.13-0.24,0.16-0.38c0.13-0.58-0.14-1.15-0.63-1.44C355.49,203.53,355.19,203.56,354.89,203.46z"/>
		<path class="st3" d="M354.16,201.99c-0.17,0.51,0.04,1.04,0.47,1.32c0.09,0.06,0.17,0.12,0.27,0.15c0.29,0.1,0.6,0.07,0.86-0.06
			c0.28-0.13,0.51-0.37,0.61-0.68c0.2-0.61-0.13-1.27-0.74-1.48c-0.27-0.09-0.54-0.06-0.79,0.04
			C354.53,201.41,354.27,201.64,354.16,201.99z"/>
		<path class="st5" d="M322.77,174.8c0.6-0.32,0.78-1.17,0.4-1.89c-0.38-0.72-1.19-1.04-1.79-0.72s-0.78,1.17-0.4,1.89
			S322.16,175.12,322.77,174.8z"/>
		<path class="st5" d="M322.77,174.8c0.6-0.32,0.78-1.17,0.4-1.89c-0.38-0.72-1.19-1.04-1.79-0.72s-0.78,1.17-0.4,1.89
			S322.16,175.12,322.77,174.8z"/>
		<path class="st5" d="M322.77,174.8c0.6-0.32,0.78-1.17,0.4-1.89c-0.38-0.72-1.19-1.04-1.79-0.72s-0.78,1.17-0.4,1.89
			S322.16,175.12,322.77,174.8z"/>
		<path class="st5" d="M331.97,172.62c0.66-0.19,1-0.99,0.77-1.77c-0.23-0.78-0.95-1.26-1.61-1.06c-0.66,0.19-1,0.99-0.77,1.77
			C330.59,172.34,331.31,172.82,331.97,172.62z"/>
		<path class="st5" d="M331.97,172.62c0.66-0.19,1-0.99,0.77-1.77c-0.23-0.78-0.95-1.26-1.61-1.06c-0.66,0.19-1,0.99-0.77,1.77
			C330.59,172.34,331.31,172.82,331.97,172.62z"/>
		<path class="st5" d="M331.97,172.62c0.66-0.19,1-0.99,0.77-1.77c-0.23-0.78-0.95-1.26-1.61-1.06c-0.66,0.19-1,0.99-0.77,1.77
			C330.59,172.34,331.31,172.82,331.97,172.62z"/>
	</g>
	<g>
		<path class="st1" d="M404.7,216.92C404.7,216.92,404.7,216.92,404.7,216.92l-0.81,0.05c-0.71,0.05-1.34,0.07-1.92,0.05
			c0-0.63,0.02-1.52,0.05-2.29c0.01-0.18,0.02-0.34,0.02-0.49c0.01-0.17,0.01-0.32,0.03-0.48l-0.11-2.79l0.92-0.05
			c0.59-0.03,0.94-0.05,1.05-0.05c0.52,0,0.94-0.42,0.94-0.92s-0.42-0.92-0.94-0.92c-0.15,0-0.56,0.02-1.24,0.06l-0.81,0.04
			l-0.06-1.52c-0.04-1.24-0.07-2.49-0.05-3.3c0-0.48,0-0.85,0.02-1.14c0-0.11,0.01-0.17,0.03-0.22c0,0,0.01,0,0.02,0
			c0.2-0.04,0.45-0.06,0.75-0.06c0.57,0.02,1.13,0.11,1.66,0.27c0.49,0.13,1-0.15,1.16-0.64c0.13-0.49-0.15-0.99-0.65-1.14
			c-0.69-0.2-1.4-0.31-2.11-0.34c-1.32-0.04-2.17,0.33-2.53,1.07c-0.18,0.38-0.21,1.04-0.21,2.2c-0.02,1.6,0.06,3.88,0.19,6.82
			c0.07,1.35,0.09,2.1,0.09,2.2l0,0.46c-0.01,0.13-0.02,0.29-0.03,0.46c-0.01,0.14-0.01,0.29-0.02,0.46
			c-0.02,0.75-0.05,1.68-0.05,2.39c0.01,0.1,0.02,0.19,0.02,0.27c0.01,0.12,0.01,0.22,0.03,0.27c0,0.22,0.03,0.5,0.25,0.74
			c0.33,0.38,0.85,0.46,1.27,0.48c0.2,0.01,0.45,0.01,0.74,0.01c0.44,0,0.97-0.02,1.54-0.06l0.77-0.05c0.52,0,0.94-0.41,0.94-0.92
			S405.23,216.92,404.7,216.92z"/>
		<path class="st1" d="M415.93,204.35c0-1.9-0.23-2.95-1.47-3.38c-0.81-0.31-2.71-0.11-3.48,0.18c-1.18,0.5-1.27,1.39-1.2,2.26
			c0,0.05,0,0.15,0.03,0.26c0.02,0.09,0.02,0.14,0.02,0.2c0.02,0.12,0.02,0.23,0.02,0.31l0,0.08c0.01,0.24,0.03,1.05,0.05,2.42
			c0.05,3.43-0.01,5.84-0.19,7.59c-0.26,2.13-0.55,2.39-1.57,2.46c-0.25,0.02-0.48,0.13-0.64,0.31c-0.16,0.19-0.25,0.42-0.23,0.67
			c0.03,0.49,0.45,0.86,0.94,0.86c0.02,0,0.04,0,0.06,0c2.39-0.18,3.02-1.64,3.29-4.09c0.2-1.83,0.27-4.25,0.22-7.82
			c-0.02-1.37-0.04-2.19-0.05-2.42l0-0.07c0-0.15,0-0.32-0.02-0.49c0-0.03,0-0.12-0.03-0.25c-0.02-0.06-0.02-0.11-0.02-0.2
			c-0.02-0.17-0.02-0.28-0.02-0.35c0.02-0.01,0.03-0.01,0.05-0.02c0.42-0.17,1.77-0.31,2.16-0.17c0.01,0,0.03,0.01,0.04,0.01
			c0.1,0.39,0.15,0.93,0.15,1.61c-0.02,1.38-0.02,2.08-0.02,2.14c0.19,3.23,0.31,5.73,0.12,10.8c0,0.52,0.41,0.95,0.91,0.95
			c0.53,0,0.96-0.4,0.96-0.89c0.2-5.3,0.06-7.93-0.09-10.96V204.35z"/>
		<path class="st1" d="M425.33,217.47c-0.19-0.94-0.19-1.92-0.16-3.32c0.02-0.71,0.02-1.25,0-1.66l-0.01-0.23h-0.01
			c-0.02-0.53-0.03-2.16,0.03-5.23v-5.48c0-0.41-0.19-0.7-0.54-0.84c-0.16-0.21-0.38-0.34-0.62-0.36c-1.69-0.26-3.04,0.02-4.01,0.8
			c-0.96,0.78-1.49,2.03-1.57,3.72c-0.11,2.84,0.93,4.44,3.46,5.27c-0.5,0.75-1.05,1.77-1.68,3.1l-0.5,1.13l-0.57,1.2
			c-0.1,0.24-0.25,0.55-0.49,0.98l-0.56,0.99c-0.12,0.2-0.16,0.44-0.1,0.68c0.06,0.25,0.21,0.46,0.42,0.59
			c0.14,0.08,0.3,0.13,0.47,0.13c0.32,0,0.65-0.16,0.83-0.44c0.37-0.61,0.85-1.54,1.13-2.15l1.09-2.33c0.52-1.1,0.97-1.94,1.36-2.57
			c0,0.37,0.01,0.73,0.02,1.08c0,0.3,0,0.81-0.02,1.53c-0.02,1.51,0,2.66,0.2,3.72c0.13,0.53,0.62,0.84,1.09,0.72
			c0.26-0.05,0.49-0.19,0.63-0.4C425.32,217.94,425.37,217.71,425.33,217.47z M423.29,202.13c0,0.73,0,1.79-0.02,3.2
			c-0.02,1.4-0.02,2.49-0.02,3.29c-0.41-0.12-0.74-0.23-0.96-0.31c-0.48-0.16-1.16-0.51-1.52-0.99c-0.36-0.46-0.52-1.24-0.47-2.38
			c0.06-1.14,0.34-1.92,0.86-2.36c0.39-0.32,0.92-0.49,1.63-0.49C422.95,202.11,423.11,202.11,423.29,202.13z"/>
		<path class="st1" d="M436,217.29c0-4.15-0.23-9.26-0.69-15.61c-0.03-0.51-0.49-0.88-1-0.86c-0.25,0.02-0.48,0.13-0.64,0.31
			s-0.25,0.43-0.23,0.67c0.19,2.62,0.33,4.94,0.44,6.71c-0.68,0.08-1.46,0.14-2.42,0.19c-0.02-1.16-0.07-2.27-0.14-3.28
			c0-0.17-0.04-0.84-0.08-1.51l-0.01-0.23c-0.02-0.35-0.11-1.18-0.29-1.79c-0.06-0.24-0.21-0.44-0.43-0.57
			c-0.21-0.13-0.47-0.16-0.71-0.1c-0.25,0.06-0.46,0.21-0.58,0.43c-0.12,0.21-0.16,0.46-0.09,0.69c0.06,0.22,0.11,0.44,0.16,0.79
			c0.07,0.56,0.09,0.75,0.12,1.55c0.01,0.16,0.01,0.29,0.02,0.41c0.01,0.2,0.01,0.35,0.03,0.43c0.07,1.28,0.14,2.79,0.19,3.88v7.97
			c0,0.51,0.42,0.92,0.94,0.92s0.94-0.41,0.94-0.92c0-3.54,0-5.79-0.02-6.82c0.95-0.04,1.77-0.11,2.48-0.19
			c0.1,2.28,0.15,4.6,0.15,6.92c0,0.51,0.42,0.92,0.94,0.92S436,217.8,436,217.29z"/>
		<path class="st1" d="M446.18,216.45c0.36-0.97,0.45-2.1,0.48-3.5c0.01-0.25-0.09-0.48-0.26-0.66c-0.17-0.18-0.41-0.28-0.66-0.28
			c-0.01,0-0.01,0-0.02,0c-0.51,0-0.93,0.4-0.94,0.91c-0.03,1.27-0.09,2.15-0.37,2.88c-0.34,0.84-0.99,0.84-1.34,0.77
			c-0.42-0.09-0.84-0.47-1.11-1.02c-0.79-1.65-0.96-8.41-0.61-11.1c0.23-1.76,1.02-2.02,1.68-2.04c0.31,0,0.57,0.1,0.8,0.35
			c0.58,0.6,0.88,1.94,0.76,3.41c-0.02,0.25,0.06,0.49,0.22,0.67c0.16,0.19,0.39,0.31,0.64,0.33c0.52,0.06,0.97-0.33,1.02-0.84
			c0.22-2.52-0.58-5.36-2.84-5.66c-2.3-0.3-3.77,0.96-4.14,3.54c-0.41,2.87-0.18,10.08,0.78,12.13c0.4,0.84,1,1.83,2.17,2.03
			c0.33,0.06,0.63,0.08,0.92,0.08C444.73,218.46,445.64,217.81,446.18,216.45z"/>
		<path class="st1" d="M454.25,207.6c-0.96-0.45-1.87-0.39-2.68-0.3c-0.01-2.7-0.15-4.61-0.41-5.83c-0.12-0.5-0.61-0.8-1.08-0.7
			c-0.26,0.06-0.48,0.2-0.62,0.42c-0.13,0.2-0.17,0.44-0.12,0.67c0.08,0.39,0.14,0.79,0.19,1.2c0.09,0.81,0.15,2,0.15,2.64
			c0,0.57,0.08,4.31,0.16,5.57c0.08,1.21-0.01,5.43-0.02,5.74c0.02,0.17,0.01,0.3,0.01,0.41l0,0.04l0.01,0.04
			c0.01,0.02,0.01,0.04,0.01,0.07c0.01,0.05,0.01,0.09,0.02,0.1c0.02,0.18,0.08,0.34,0.17,0.46c0.41,0.58,1.24,0.7,1.95,0.7
			c0.14,0,0.28,0,0.41-0.01c0.57-0.03,1.6-0.14,2.11-0.49c0.59-0.39,1.04-1.08,1.35-2.05c0.46-1.54,0.6-3.62,0.37-5.43
			C455.99,209.04,455.39,208.07,454.25,207.6z M451.72,211.1c-0.08-0.83-0.12-1.48-0.14-1.96c1.08-0.2,2.05,0.02,2.39,0.54
			c0.33,0.55,0.61,2.07,0.48,3.82c-0.08,1.69-0.54,2.94-0.95,3.29l-0.35,0.09c-0.51,0.09-1.05,0.12-1.45,0.08
			c0-0.25,0.01-1.19,0.01-1.97c0-0.57,0-1.04,0-1.1c0-0.18,0.01-0.4,0.02-0.64C451.75,212.68,451.78,211.98,451.72,211.1z"/>
		<path class="st1" d="M396.26,237.39c-0.32-2.17-1.04-3.58-2.14-4.19c-0.02-0.01-0.03-0.02-0.05-0.03
			c0.01-0.01,0.02-0.01,0.02-0.02c0.74-0.7,0.91-1.71,1.1-2.88c0.06-0.34,0.12-0.71,0.2-1.09c0.18-0.87,0.81-3.48,0.8-3.48
			c0.1-0.23,0.1-0.49,0-0.71c-0.19-0.47-0.74-0.7-1.22-0.51c-0.41,0.16-0.51,0.41-0.66,0.83l-0.07,0.2l-0.01,0.04
			c-0.01,0.05-0.91,5.01-0.98,5.34c-0.17,0.71-0.46,1.16-1.39,1.29l0-0.39c0-1.52,0-2.22,0.14-4.19c0.04-0.81,0.05-1.54,0.02-2.2
			c-0.03-0.51-0.47-0.9-1-0.86c-0.25,0.01-0.48,0.13-0.64,0.31c-0.17,0.19-0.25,0.43-0.23,0.67c0.02,0.38,0.03,1.04-0.02,1.98
			l-0.02,0.37c-0.06,0.93-0.1,1.49-0.09,1.76c-0.02,1.27-0.01,3.02,0.02,5.24l0.03,3.63c0.01,1.24,0.02,2.15,0.02,2.71
			c0,0.51,0.42,0.92,0.94,0.92s0.94-0.41,0.94-0.93l-0.07-6.67c0.81,0.02,1.17,0.15,1.32,0.22c1.06,0.57,1.26,2.99,1.41,4.75
			l0.03,0.36c0.09,1.18,0.16,1.78,0.19,1.99c0.09,0.45,0.48,0.77,0.93,0.77c0.06,0,0.11,0,0.17-0.02c0.25-0.05,0.48-0.19,0.63-0.4
			c0.14-0.2,0.19-0.44,0.14-0.67c-0.02-0.13-0.1-0.62-0.19-1.8C396.41,238.52,396.31,237.74,396.26,237.39z"/>
		<path class="st1" d="M441.72,237.39c-0.32-2.17-1.04-3.58-2.14-4.19c-0.02-0.01-0.03-0.02-0.05-0.03
			c0.01-0.01,0.02-0.01,0.02-0.02c0.74-0.7,0.91-1.71,1.1-2.88c0.06-0.34,0.12-0.71,0.2-1.09c0.18-0.88,0.81-3.48,0.8-3.48h0
			c0.1-0.23,0.1-0.48,0-0.71c-0.19-0.47-0.74-0.7-1.22-0.51c-0.41,0.16-0.51,0.41-0.66,0.83l-0.07,0.2l-0.01,0.04
			c-0.01,0.05-0.91,5.01-0.98,5.34c-0.17,0.71-0.46,1.16-1.39,1.29l0-0.39c0-1.52,0-2.22,0.14-4.19c0.04-0.81,0.05-1.54,0.02-2.2
			c-0.03-0.51-0.48-0.9-1-0.86c-0.25,0.01-0.48,0.13-0.64,0.31c-0.17,0.19-0.25,0.43-0.23,0.67c0.02,0.38,0.03,1.04-0.02,1.98
			l-0.03,0.45c-0.06,0.88-0.09,1.41-0.09,1.68c-0.02,1.27-0.01,3.02,0.02,5.24l0.03,3.52c0.01,1.3,0.02,2.25,0.02,2.83
			c0,0.51,0.42,0.92,0.94,0.92s0.94-0.41,0.94-0.93l-0.07-6.67c0.81,0.02,1.17,0.15,1.32,0.22c1.06,0.57,1.26,2.99,1.41,4.75
			l0.03,0.36c0.09,1.18,0.16,1.78,0.19,1.99c0.09,0.45,0.48,0.77,0.93,0.77c0.06,0,0.11,0,0.17-0.02c0.25-0.05,0.48-0.19,0.63-0.4
			c0.14-0.2,0.19-0.44,0.14-0.68c-0.02-0.13-0.1-0.62-0.19-1.8C441.87,238.52,441.77,237.74,441.72,237.39z"/>
		<path class="st1" d="M404.87,225.79c0-0.5-0.43-0.9-0.96-0.9c-0.5,0-0.91,0.42-0.91,0.95c0,0.2,0.02,0.73,0.07,1.53
			c0.05,1.17,0.04,3,0.02,4.61c0,0.53-0.01,1.02-0.01,1.45c-2.47-0.22-2.68-1.37-2.86-7.38c-0.03-0.5-0.5-0.86-1.02-0.84
			c-0.24,0.01-0.45,0.12-0.61,0.3c-0.17,0.19-0.26,0.45-0.24,0.72c0.07,0.72,0.1,1.53,0.13,2.4c0.05,1.66,0.11,3.38,0.52,4.41
			c0.61,1.62,2.2,2.04,4.04,2.53c0.01,0.01,0.03,0.02,0.04,0.04c-0.03,2.47-0.27,4.31-0.61,4.71c-0.17,0.2-0.49,0.31-0.93,0.31
			c-0.34,0-0.85-0.08-1.55-0.25c-0.49-0.13-1,0.16-1.13,0.65c-0.06,0.25-0.03,0.5,0.1,0.72c0.13,0.21,0.33,0.36,0.58,0.42
			c0.78,0.2,1.48,0.31,2.03,0.31c1,0,1.79-0.32,2.33-0.95c0.89-1.02,1.06-3.47,1.06-7.36c0-0.53,0.01-1.16,0.02-1.84
			c0.02-1.67,0.04-3.56-0.03-4.89C404.89,226.56,404.87,225.96,404.87,225.79z"/>
		<path class="st1" d="M409.01,224.66c-0.65,0.13-1.1,0.39-1.31,0.77c-0.09,0.12-0.14,0.26-0.14,0.43
			c-0.03,0.08-0.03,0.16-0.03,0.23v0.44l0,0.01c0.02,0.61,0.05,0.89,0.22,3.01l0.02,0.22c0.41,5.3,0.5,9.25,0.26,12.06
			c-0.02,0.25,0.07,0.49,0.23,0.67c0.17,0.19,0.39,0.3,0.64,0.31c0.02,0,0.04,0,0.06,0c0.49,0,0.91-0.38,0.94-0.86
			c0.15-1.73,0.19-3.79,0.13-6.27c1.71-0.51,2.81-1.37,3.28-2.55c0.41-1.12,0.37-3.25-0.1-5.41
			C412.85,226.13,412.04,224.07,409.01,224.66z M409.4,226.45c0.36-0.08,1.15-0.06,1.43,0.33c0.31,0.42,0.76,2.35,0.86,4.11
			c0.09,1.55,0.05,2.25-1.76,2.89c-0.06-1.08-0.15-2.48-0.29-4.14c-0.19-2.09-0.21-2.61-0.24-3.15V226.45z"/>
		<path class="st1" d="M417.47,224.9c-0.83,0.39-1.1,1.49-1.25,2.63c-0.27,1.92,0.18,11.91,0.19,11.99c0.1,1.02,0.47,1.81,1.06,2.29
			c0.59,0.48,1.43,0.75,2.27,0.75c0.24,0,0.49-0.02,0.72-0.07c0.72-0.14,1.25-0.49,1.51-0.96c0.37-0.62,0.56-1.51,0.58-2.71
			l0.05-1.49c0.04-1.49,0.07-3.34,0.07-4.97c-0.02-3.04-0.33-5.38-0.83-6.42C421.29,224.8,419.22,224.09,417.47,224.9z
			 M418.71,240.42c-0.27-0.29-0.46-1.1-0.46-1.98c0-0.1-0.03-0.6-0.08-1.55c-0.1-1.77-0.24-4.45-0.25-5.63
			c-0.02-1.36,0.04-2.57,0.16-3.5c0.08-0.58,0.25-1.12,0.92-1.19c0.04,0,0.08-0.01,0.13-0.01c0.49,0,1.18,0.23,1.33,0.67
			c0.14,0.41,0.31,1.63,0.34,5.13c0,1.64-0.03,3.44-0.07,4.93l-0.05,1.52c-0.02,0.8-0.09,1.32-0.35,1.62
			c-0.08,0.09-0.38,0.19-0.78,0.19c-0.01,0-0.01,0-0.02,0C419.09,240.63,418.8,240.52,418.71,240.42z"/>
		<path class="st1" d="M432.13,225.12c0-0.51-0.42-0.92-0.94-0.92s-0.94,0.41-0.94,0.92c0,1.91,0.08,4.77,0.23,8.29
			c-1.01,0.35-1.74,0.39-2.27,0.11c-0.49-0.25-0.85-0.79-1.09-1.65c-0.27-0.88-0.23-2.43-0.18-4.23c0.02-0.78,0.04-1.61,0.04-2.47
			c0-0.51-0.42-0.92-0.94-0.92s-0.94,0.41-0.94,0.92c0,0.82-0.02,1.63-0.03,2.39c-0.04,2.03-0.08,3.78,0.24,4.85
			c0.37,1.28,1.03,2.17,1.96,2.67c0.9,0.48,2.02,0.56,3.28,0.23c0.09,2.41,0.13,4.36,0.13,5.94c0,0.51,0.42,0.92,0.94,0.92
			s0.94-0.41,0.94-0.92c0-1.8-0.07-4.52-0.21-8.1C432.21,229.6,432.13,226.9,432.13,225.12z"/>
		<path class="st1" d="M451.12,238.61l-0.03-2.99c-0.02-2.57-0.03-4.43-0.11-6.25c0-0.06-0.01-0.33-0.01-0.85l0-0.09
			c-0.02-1.01-0.04-1.8-0.24-2.49c-0.34-1.22-0.86-1.46-1.96-1.55c-2.1-0.2-3.41,1.17-3.67,3.83c-0.22,2.07-0.29,5.25-0.23,9.44
			c0,0.54,0.02,1.02,0.06,1.42c0.06,0.81,0.05,1.78-0.03,2.46c-0.07,0.5,0.29,0.98,0.81,1.07c0.06,0.01,0.12,0.02,0.17,0.02
			c0.19,0,0.37-0.06,0.53-0.17c0.2-0.15,0.33-0.36,0.37-0.63c0.08-0.8,0.09-1.94,0.02-2.85c-0.04-0.32-0.06-0.75-0.06-1.28
			c-0.02-0.95-0.03-1.75-0.03-2.4l0-0.42c0.27-0.02,0.6-0.04,1.02-0.05c0.88-0.05,1.3-0.07,1.49-0.07c0.03,2.32,0.04,3.56,0.03,3.8
			c-0.02,0.48-0.05,2.15,0.32,3.37c0.15,0.5,0.64,0.78,1.15,0.66c0.25-0.06,0.45-0.21,0.57-0.42s0.15-0.46,0.07-0.71
			C451.12,240.6,451.09,239.44,451.12,238.61z M449.34,229.38l-0.25,0.01c0.04,1.01,0.08,2.16,0.09,3.52
			c-0.52,0-1.54,0.07-2.22,0.11l-0.27,0.02c0.02-1.6,0.1-3.1,0.25-4.58c0.21-1.89,0.84-2.24,1.47-2.24c0.06,0,0.13,0,0.19,0.01
			c0.11,0.01,0.2,0.02,0.26,0.02c0.01,0.03,0.03,0.07,0.04,0.12c0.11,0.45,0.13,0.99,0.16,2.11c0,0.53,0.01,0.84,0.02,0.92
			L449.34,229.38L449.34,229.38L449.34,229.38L449.34,229.38z"/>
		<path class="st1" d="M474.9,217.77c-0.19-0.68-0.27-1.66-0.24-2.85l-0.03-3.03c-0.02-2.55-0.03-4.4-0.11-6.21
			c0-0.05-0.01-0.33-0.01-0.85l0-0.09c-0.02-1.01-0.04-1.81-0.24-2.49c-0.34-1.22-0.86-1.46-1.96-1.55c-2.1-0.2-3.41,1.17-3.67,3.83
			c-0.22,2.07-0.29,5.25-0.23,9.44c0,0.54,0.02,1.02,0.06,1.42c0.06,0.81,0.05,1.78-0.03,2.46c-0.07,0.5,0.29,0.98,0.81,1.07
			c0.06,0.01,0.12,0.02,0.17,0.02c0.19,0,0.37-0.06,0.53-0.17c0.2-0.15,0.33-0.36,0.37-0.62c0.09-0.92,0.07-2.09,0.02-2.85
			c-0.04-0.32-0.06-0.76-0.06-1.28c-0.03-0.97-0.03-1.78-0.04-2.43l0-0.38c0.27-0.02,0.6-0.04,1.02-0.05
			c0.75-0.04,1.24-0.07,1.5-0.07c0.03,2.28,0.05,3.56,0.03,3.8c-0.02,0.48-0.05,2.15,0.32,3.37c0.15,0.5,0.64,0.78,1.15,0.66
			c0.25-0.06,0.45-0.21,0.57-0.42C474.95,218.27,474.97,218.02,474.9,217.77z M472.89,205.7l-0.25,0.01
			c0.04,1.02,0.08,2.18,0.09,3.52c-0.53,0-1.55,0.07-2.22,0.11l-0.26,0.02c0.02-1.59,0.1-3.1,0.26-4.58
			c0.21-1.89,0.84-2.24,1.47-2.24c0.06,0,0.13,0,0.19,0.01c0.11,0.01,0.2,0.02,0.26,0.02c0.01,0.03,0.03,0.07,0.04,0.12
			c0.11,0.45,0.14,0.99,0.16,2.11c0,0.53,0.01,0.83,0.02,0.91L472.89,205.7L472.89,205.7L472.89,205.7L472.89,205.7z"/>
		<path class="st1" d="M465.26,213.63c-0.32-2.17-1.04-3.58-2.14-4.19c-0.01-0.01-0.03-0.02-0.05-0.03
			c0.01-0.01,0.01-0.01,0.02-0.02c0.74-0.7,0.91-1.71,1.1-2.88c0.06-0.34,0.12-0.71,0.2-1.08c0.18-0.87,0.81-3.48,0.8-3.48
			c0.1-0.23,0.1-0.49,0-0.71c-0.19-0.47-0.74-0.7-1.22-0.51c-0.41,0.16-0.51,0.42-0.66,0.83l-0.07,0.2l-0.01,0.04
			c-0.01,0.05-0.91,5.01-0.98,5.34c-0.17,0.71-0.46,1.16-1.39,1.29l0-0.38c0-1.53,0-2.23,0.14-4.2c0.04-0.81,0.05-1.54,0.02-2.2
			c-0.03-0.51-0.49-0.89-1-0.86c-0.25,0.02-0.48,0.13-0.64,0.31c-0.16,0.19-0.25,0.42-0.23,0.67c0.02,0.38,0.03,1.04-0.02,1.98
			l-0.02,0.38c-0.06,0.92-0.1,1.48-0.09,1.75c-0.02,1.26-0.01,3,0.01,5.19l0.03,3.63c0.01,1.27,0.02,2.2,0.02,2.77
			c0,0.51,0.42,0.92,0.94,0.92s0.94-0.41,0.94-0.93l-0.07-6.67c0.81,0.02,1.17,0.15,1.32,0.22c1.06,0.57,1.26,2.99,1.41,4.75
			l0.03,0.37c0.09,1.18,0.16,1.78,0.19,1.99c0.09,0.45,0.48,0.77,0.93,0.77c0.06,0,0.11,0,0.17-0.02c0.25-0.05,0.48-0.19,0.63-0.4
			c0.14-0.2,0.19-0.44,0.14-0.67c-0.02-0.13-0.1-0.63-0.19-1.8C465.41,214.76,465.31,213.98,465.26,213.63z"/>
		<path class="st1" d="M396.17,212.02c-0.01,0-0.01,0-0.02,0c-0.51,0-0.93,0.4-0.94,0.91c-0.03,1.27-0.09,2.15-0.37,2.88
			c-0.34,0.84-0.99,0.84-1.34,0.77c-0.42-0.09-0.84-0.47-1.11-1.02c-0.79-1.65-0.96-8.41-0.61-11.1c0.23-1.76,1.02-2.02,1.68-2.04
			c0.31,0,0.57,0.1,0.8,0.35c0.58,0.6,0.88,1.94,0.76,3.41c-0.02,0.25,0.06,0.49,0.22,0.67c0.16,0.19,0.39,0.31,0.64,0.33
			c0.52,0.06,0.97-0.33,1.02-0.84c0.22-2.52-0.58-5.36-2.84-5.66c-2.3-0.3-3.77,0.96-4.14,3.54c-0.41,2.87-0.18,10.08,0.78,12.13
			c0.4,0.84,1,1.83,2.17,2.03c0.33,0.06,0.63,0.08,0.92,0.08c1.36,0,2.27-0.65,2.81-2.01c0.36-0.97,0.45-2.1,0.48-3.5
			c0.01-0.25-0.09-0.48-0.26-0.66C396.66,212.12,396.42,212.02,396.17,212.02z"/>
	</g>
	<g>
		<g>
			<path id="XMLID_93_" class="st1" d="M299.92,253.58c0,0,0.93-0.02,1.1,0.91c0.17,0.93,0.28,33.03,0.23,33.89s-0.1,1.8-1.39,1.84
				c-1.29,0.03-3.74-0.04-3.74-0.04s-0.73-0.56-0.92-2.06s0.08-27.57,0.09-29.95c0.01-2.37-0.41-4.45,0.67-4.48L299.92,253.58z"/>
			<path id="XMLID_92_" class="st1" d="M289.99,252.99c0,0,0.38,0.33,0.36,0.96c-0.02,0.63-0.47,7.99-0.37,13.89
				c0.02,1.1,0.09,3.22,2.36,4.29c0.61,0.29,0.96,0.5,1.95,0.28c1.1-0.24,0.91-1.57,0.91-1.57l1.57,1.76l-0.05,3.77l-1.56,3.15
				c0,0-0.12-1.26-1.33-1.45c-2.33-0.36-3.82-0.63-5.89-1.94c-3.6-2.27-3.69-5.89-3.78-8.1c-0.15-3.56,0.25-14.14,0.42-14.53
				c0.17-0.39,0.15-0.79,1.02-0.76C286.43,252.79,289.99,252.99,289.99,252.99z"/>
		</g>
		<path class="st1" d="M329.38,261.01c0.76-0.91,2.97-1.68,4.75-2.09c1.78-0.41,1.85-2.33,1.7-4.31c-0.15-1.98-1.68-1.37-1.68-1.37
			c-9.2,0.97-11.08,6.05-11.36,7.03c-1.53,5.34-0.78,20.11-0.58,22.34c0.46,5.12,2.65,7.36,4.61,7.63c2.05,0.28,3.65,0.52,5.68-0.6
			c2.02-1.13,3.5-4.06,4.08-5.77c0.58-1.71,0.76-10.1-0.31-12.29c-1.07-2.18-1.96-3.67-4.42-4.72c-0.99-0.42-2.33-0.62-3.06-0.7
			c-0.33-0.04-0.56-0.46-0.59-1.12C328.15,263.82,328.62,261.92,329.38,261.01z M330.87,283.02c-0.42,1.02-0.33,1.91-1.72,2
			c-0.87,0.06-1.31-1.12-1.42-2.51c-0.11-1.4,0.01-10.27,0.06-10.97c0.05-0.69,0.97-0.56,1.17-0.48c0.8,0.32,1.55,1.33,2.09,2.93
			C331.59,275.58,331.3,282.01,330.87,283.02z"/>
		<path class="st1" d="M316.7,257.89c-1.07-1.02-4.85-2.2-7.81-0.53c-2.66,1.5-4.07,3.7-4.42,9.3c-0.37,5.85-0.36,12.52,0.07,15.32
			c0.43,2.8,1.69,6.96,5.46,7.76c3.77,0.8,7.2-0.52,8.12-3.11c1.07-3.01,1.48-6.65,1.41-7.92c-0.07-1.27-0.64-1.54-1.92-1.54
			s-2.78,0.4-2.78,1.27s0.02,2.1-0.31,3.63c-0.3,1.38-1.6,1.38-2.31,1.32c-0.71-0.07-1.63-0.7-2.06-3.01
			c-0.55-2.96-0.15-13.14,0.06-14.81c0.21-1.67,0.9-3.13,2.07-3.22c1.51-0.12,2,1.28,2.17,2.67c0.14,1.19,0.15,3.14,0.15,3.94
			c0,0.8-1.24,1.01-2.49,1.08c-0.46,0.03-1.05,0.07-1.61,0.04c-0.75-0.04-0.47-1.35-0.47-1.35l-1.27,4.64l1.13,2.12
			c0,0-0.05-1.05,0.72-1.05c1.57,0,4.36-0.15,6.09-0.47c1.54-0.28,2.2-1.02,2.56-1.89c0.24-0.59,0.34-5.11,0.17-7.44
			C319.21,261.73,319.2,260.27,316.7,257.89z"/>
		<g>
			<path id="XMLID_91_" class="st1" d="M439.81,256.15c0,0,0.94-0.01,1.1,0.92c0.32,1.86-0.04,29.91-0.03,29.81
				c-0.06,0.87-0.12,1.81-1.41,1.83s-3.75-0.08-3.75-0.08s-0.73-0.57-0.9-2.08c-0.07-0.59,0.26-22.52,0.31-25.85
				c0.03-2.38-0.36-4.47,0.72-4.49L439.81,256.15z"/>
			<path id="XMLID_90_" class="st1" d="M430.82,256.23c0,0,0.39,0.32,0.39,0.95s-0.23,10.84-0.21,11.94s-0.01,3.27,2.48,3.73
				c1.91,0.35,1.52-1.56,1.52-1.56l1.48,1.3l0,4.69l-1.6,2.61c0,0,0.46-1.24-1-1.29c-1.57-0.06-3.13-0.11-4.56-1.19
				c-3.41-2.58-3.95-6-3.75-8.21c0.2-2.21,0.08-11.92,0.24-12.31c0.16-0.39,0.12-0.8,0.99-0.8
				C427.67,256.08,430.82,256.23,430.82,256.23z"/>
		</g>
		<path class="st1" d="M347.93,265.64c0,1.21-0.07,1.38-0.13,1.96c-0.05,0.46-0.38,0.73-0.81,0.78c-0.76,0.1-1.98,0.3-2.89,0.7
			c-2.45,1.06-3.33,2.56-4.39,4.75c-1.06,2.19-1.14,6.84-0.4,10.08c0.41,1.76,2.17,4.12,4.2,5.25c1.25,0.7,3.96,1.12,6.57,0.81
			c0.78-0.09,2.37-0.26,2.96-1.07c0.58-0.8,0.53-2.4,0.57-4.64s0.43-17.12,0.37-19.04c-0.06-1.92-0.29-4.8-1.39-6.32
			c-1.29-1.78-5.97-3.44-10.56-0.75c-2.71,1.59-3.88,5.18-3.26,5.72c0.37,0.33,1.73,1.23,2.38,1.39c1.2,0.31,1.81-0.13,2.13-0.74
			c0.45-0.87,1.79-2.41,3.08-2.16C347.96,262.66,347.93,263.34,347.93,265.64z M344.95,276.2c0.53-1.6,1.27-2.62,2.07-2.94
			c0.2-0.08,1.12-0.22,1.18,0.48c0.06,0.69-0.03,8.71-0.03,9.24c0,0.53-0.18,1.26-0.72,1.47c-0.73,0.28-2-0.41-2.43-1.42
			C344.6,282.01,344.42,277.81,344.95,276.2z"/>
		<path class="st1" d="M470.26,264.66c0,1.21-0.07,1.38-0.13,1.96c-0.05,0.46-0.38,0.73-0.81,0.78c-0.76,0.1-1.98,0.3-2.89,0.7
			c-2.45,1.06-3.33,2.56-4.39,4.75c-1.06,2.19-1.14,6.84-0.4,10.08c0.41,1.76,2.17,4.12,4.2,5.25c1.25,0.7,3.96,1.12,6.57,0.81
			c0.78-0.09,2.37-0.26,2.96-1.07c0.58-0.8,0.53-2.4,0.57-4.64c0.05-2.24,0.43-17.12,0.37-19.04c-0.06-1.92-0.29-4.8-1.39-6.32
			c-1.29-1.78-5.97-3.44-10.56-0.75c-2.71,1.59-3.88,5.18-3.26,5.72c0.37,0.33,1.73,1.23,2.38,1.39c1.2,0.31,1.81-0.13,2.13-0.74
			c0.45-0.87,1.79-2.41,3.08-2.16C470.29,261.68,470.26,262.36,470.26,264.66z M467.28,275.23c0.53-1.6,1.27-2.62,2.07-2.94
			c0.2-0.08,1.12-0.22,1.18,0.48c0.06,0.69-0.03,8.71-0.03,9.24c0,0.53-0.18,1.26-0.72,1.47c-0.73,0.28-2-0.41-2.43-1.42
			C466.93,281.03,466.75,276.83,467.28,275.23z"/>
		<path id="XMLID_85_" class="st1" d="M361.04,255.99c0,0-4.12-0.01-4.75-0.01c-0.62,0-1.07,0.05-1.29,0.94
			c-0.22,0.89-0.19,2.1-0.14,2.81s-0.08,1.38,1.12,1.47c1.2,0.09,2.89,0.04,3.03,0.75c0.14,0.71,0.12,25.07,0.13,25.6
			s0.09,1.2,1.52,1.29c1.43,0.08,3.16,0.08,3.52,0.08c0.36,0,0.67-0.45,0.75-1.61c0.09-1.16,0.19-24.6,0.19-24.96
			c0-0.36,0.22-1.11,1.11-1.16c0.89-0.05,1.91-0.14,2.31-0.14c0.4,0,0.67-0.63,0.62-1.38c-0.05-0.76,0.04-2.49,0.04-2.81
			c0-0.31-0.48-0.73-1.46-0.77S361.04,255.99,361.04,255.99z"/>
		<g>
			<path id="XMLID_84_" class="st1" d="M448.93,255.75c0,0-2.39-0.1-2.97,0.04s-1.3,0.06-1.38,1.14
				c-0.08,1.08-0.22,15.12,0.15,21.11c0.37,5.98,0.33,9.73,0.46,10.23c0.14,0.51,0.35,0.8,1.29,0.81c0.94,0.01,3.03,0.03,3.52,0.04
				c0.49,0.01,0.84-0.53,0.85-1.56c0.01-1.03-0.48-23.65-0.6-26.3s0.05-4.22-0.1-4.71S449.56,255.76,448.93,255.75z"/>
			<path id="XMLID_83_" class="st1" d="M454.09,257.45c-0.3,0.58-4.76,12.52-4.76,12.52s-0.2,2.8-0.2,2.95c0,0.15,0.2-0.68,0.2-0.54
				c0,0.15,0.93,0.39,0.93,0.39s1.1,1.05,1.47,1.59c0.34,0.5,0.85,1.48,1.33,3.79c0.55,2.64,1.78,9.6,1.77,9.94
				c0,0.34,0.18,1.13,1.31,1.14c1.13,0.01,2.65-0.18,3.24-0.17c0.59,0.01,1.13-0.38,1.14-1.12s-2.31-11.9-2.54-12.93
				c-0.23-1.03-1.6-3.33-2.44-4.12c-0.83-0.79-1.21-1.1-1.21-1.1s3.67-8.75,4.28-10.36c0.61-1.61,1.16-2.93-0.07-2.99
				c-1.23-0.06-2.79-0.32-3.43-0.23C454.48,256.29,454.39,256.87,454.09,257.45z"/>
		</g>
		<path class="st1" d="M423.46,266.77c-0.84-9.81-5.42-11.12-7.48-11.12c-0.66,0-3.83-0.84-6.63,2.8
			c-2.8,3.64-3.55,10.91-3.18,15.77s1.14,13.38,7.1,14.79c5.58,1.33,7.76-2.71,9.06-5.51C423.65,280.7,423.95,272.47,423.46,266.77z
			 M414.74,284.06c-1.3,0.14-2.37-1.48-2.55-4.03c-0.18-2.55-0.31-8.55,0-11.85c0.18-1.91,0.27-4.83,1.28-6.01
			c1.01-1.18,2.38-1.09,2.84,0.27s0.84,5.75,0.84,11.13C417.16,278.45,417.33,283.79,414.74,284.06z"/>
		<g>
			<path id="XMLID_82_" class="st1" d="M299.92,253.58c0,0,0.93-0.02,1.1,0.91c0.17,0.93,0.28,33.03,0.23,33.89s-0.1,1.8-1.39,1.84
				c-1.29,0.03-3.74-0.04-3.74-0.04s-0.73-0.56-0.92-2.06s0.08-27.57,0.09-29.95c0.01-2.37-0.41-4.45,0.67-4.48L299.92,253.58z"/>
			<path id="XMLID_81_" class="st1" d="M289.99,252.99c0,0,0.38,0.33,0.36,0.96c-0.02,0.63-0.47,7.99-0.37,13.89
				c0.02,1.1,0.09,3.22,2.36,4.29c0.61,0.29,0.96,0.5,1.95,0.28c1.1-0.24,0.91-1.57,0.91-1.57l1.57,1.76l-0.05,3.77l-1.56,3.15
				c0,0-0.12-1.26-1.33-1.45c-2.33-0.36-3.82-0.63-5.89-1.94c-3.6-2.27-3.69-5.89-3.78-8.1c-0.15-3.56,0.25-14.14,0.42-14.53
				c0.17-0.39,0.15-0.79,1.02-0.76C286.43,252.79,289.99,252.99,289.99,252.99z"/>
		</g>
		<g>
			<path id="XMLID_18_" class="st1" d="M376.63,292.55c7.34-0.02,9.07-8.15,9.15-9.01c0.54-5.47,0.61-24.33,0.46-25.26
				c-0.15-0.93-1.08-0.93-1.08-0.93l-3.95,0.01c-1.08,0-0.5,2.09-0.57,4.46c-0.05,1.78-0.39,14.06-0.51,20.95
				c-0.04,2.28-1.57,4.64-3.73,4.36c-2.02-0.26-2.7-3.58-2.95-3.93s-0.87-0.38-1.69-0.2c-1.22,0.28-2.46,1.21-2.74,1.59
				c-0.27,0.38-0.72,1.08,0.13,2.72C370.16,289.29,372.2,292.56,376.63,292.55z"/>
		</g>
		<path class="st1" d="M402.26,258.93c-1.62-2.08-3.69-2.68-5.51-2.91c-1.53-0.19-3.82-0.01-3.82-0.01c-0.48,0-1.43,0-1.81,0
			c-0.87,0-1.74,1.1-1.74,1.83c0.01,2.34-0.06,31.28-0.06,30.15c0,0.48,0.16,0.87,0.83,0.97c1.21,0.17,3.25-0.01,4.07-0.01
			c0.82,0,0.97-0.73,0.97-1.36c0-0.63-0.11-6.07-0.14-6.47c-0.02-0.34,0.21-0.73,0.68-0.77c1.95-0.16,3.3-0.72,4.23-1.32
			c2.95-1.9,4.11-8.16,4.15-11.41C404.15,263.61,403.72,260.8,402.26,258.93z M398.34,270.7c-0.04,1.89-0.68,3.47-1.62,4.15
			c-0.17,0.12-0.74,0.21-1.14,0.23c-0.19,0.01-0.5-0.15-0.6-0.6c-0.11-0.45,0.07-12.63,0.08-13.05c0.01-0.43,0.32-0.59,0.46-0.59
			c1.11,0.01,1.66,0.53,2.07,1.22C398.44,263.54,398.38,268.81,398.34,270.7z"/>
		<path id="XMLID_64_" class="st1" d="M376.19,257.52c0,0,0.38,0.32,0.37,0.95c-0.02,0.63-0.33,10.29-0.32,11.39
			c0,1.1-0.16,3.15,2.25,3.85c0.28,0.08,1.13,0.23,1.52-0.01c0.51-0.32,0.48-1.33,0.48-1.33l0.83,6.05l-1.05,2.17
			c0,0,0.02-0.94-0.72-0.96c-1.64-0.04-3.49-0.3-5.09-1.54c-3.36-2.61-3.86-6.03-3.63-8.23c0.23-2.2,0.19-11.44,0.36-11.83
			c0.17-0.39,0.14-0.8,1.01-0.77S376.19,257.52,376.19,257.52z"/>
	</g>
</g>
</svg>
