<?xml version="1.0" standalone="no"?>
<!DOCTYPE svg PUBLIC "-//W3C//DTD SVG 20010904//EN"
 "http://www.w3.org/TR/2001/REC-SVG-20010904/DTD/svg10.dtd">
<svg version="1.0" xmlns="http://www.w3.org/2000/svg"
 width="1654.000000pt" height="595.000000pt" viewBox="0 0 1654.000000 595.000000"
 preserveAspectRatio="xMidYMid meet">

<g transform="translate(0.000000,595.000000) scale(0.100000,-0.100000)"
fill="#000000" stroke="none">
<path d="M14050 5099 c-1001 -102 -1793 -883 -1911 -1883 -15 -130 -6 -472 15
-591 85 -462 291 -852 618 -1171 223 -217 468 -373 751 -478 389 -145 834
-170 1247 -69 422 102 831 357 1112 692 550 658 662 1554 289 2316 -310 631
-897 1062 -1596 1170 -126 19 -401 27 -525 14z m545 -409 c613 -122 1124 -570
1317 -1155 71 -212 82 -291 82 -555 1 -208 -2 -247 -22 -339 -37 -166 -79
-286 -153 -436 -239 -484 -674 -819 -1219 -937 -93 -20 -133 -22 -340 -22
-207 0 -248 2 -340 22 -337 73 -625 223 -861 450 -281 269 -450 581 -521 959
-30 164 -30 437 0 604 134 738 715 1303 1467 1424 136 22 446 14 590 -15z"/>
<path d="M14356 4035 c-28 -30 -215 -232 -416 -449 -201 -217 -372 -398 -380
-402 -8 -5 -96 -11 -195 -14 l-180 -5 -3 -174 c-2 -118 1 -178 9 -187 8 -10
54 -14 187 -16 l176 -3 426 -460 c234 -253 433 -460 442 -460 8 0 70 49 137
110 94 85 121 115 121 135 0 19 -71 102 -295 345 -162 176 -295 323 -295 327
0 5 224 8 498 8 473 0 500 1 516 19 19 21 125 330 119 349 -4 9 -124 12 -556
12 -304 0 -557 4 -564 8 -8 5 84 111 282 324 161 174 294 322 296 329 1 8 1
19 0 26 -2 17 -240 233 -258 233 -9 0 -39 -25 -67 -55z"/>
<path d="M286 3687 c-15 -15 -43 -82 -77 -185 -43 -131 -51 -166 -44 -188 9
-23 50 -45 309 -163 164 -75 299 -140 299 -146 0 -5 -135 -83 -299 -172 -208
-113 -304 -170 -314 -187 -14 -24 -12 -35 35 -173 28 -81 60 -159 72 -173 l21
-25 683 -3 c601 -2 685 -1 705 13 23 15 24 19 24 165 0 143 -1 150 -22 164
-20 14 -84 16 -497 16 -293 0 -471 4 -465 9 5 5 137 60 294 121 200 78 292
118 308 136 19 22 22 36 22 114 0 78 -3 92 -22 113 -16 17 -103 53 -296 122
-150 54 -275 102 -278 106 -3 5 179 9 414 9 405 0 420 1 445 20 35 28 125 293
107 315 -11 13 -109 15 -707 15 l-694 0 -23 -23z"/>
<path d="M1889 3693 c-11 -12 -14 -53 -14 -160 0 -179 -5 -173 145 -173 91 0
109 -3 123 -18 15 -17 17 -68 17 -530 l0 -512 24 -15 c21 -14 51 -16 179 -13
112 2 159 7 170 17 15 12 17 63 17 542 l0 529 333 0 c311 0 335 -1 350 -18 15
-17 17 -68 17 -530 l0 -512 24 -15 c21 -14 51 -16 179 -13 112 2 159 7 170 17
15 12 17 63 17 542 l0 529 94 0 c75 0 98 4 115 18 13 10 38 67 66 152 50 148
52 165 29 174 -9 3 -471 6 -1029 6 -930 0 -1014 -1 -1026 -17z"/>
<path d="M4137 3692 c-14 -15 -17 -42 -17 -153 0 -193 -21 -179 255 -179 225
0 225 0 240 -23 13 -21 15 -72 13 -363 l-3 -339 -195 -5 c-128 -3 -202 -9
-217 -17 -15 -9 -34 -50 -67 -150 -25 -76 -46 -146 -46 -155 0 -10 9 -22 19
-28 31 -16 1319 -13 1351 3 25 12 25 14 28 162 4 199 23 185 -249 185 -203 0
-208 0 -223 22 -14 19 -16 71 -16 365 l0 343 189 0 c169 0 191 2 212 19 31 25
121 288 108 314 -9 16 -52 17 -688 17 -644 0 -679 -1 -694 -18z"/>
<path d="M5777 3692 c-16 -17 -17 -80 -17 -698 0 -572 2 -683 14 -700 13 -17
28 -19 184 -19 128 0 173 3 185 14 15 12 17 42 17 241 l0 227 171 28 c127 20
178 24 194 17 14 -6 81 -104 169 -245 81 -129 158 -245 172 -258 25 -23 30
-24 224 -27 206 -4 248 3 235 35 -3 9 -107 175 -231 368 l-224 353 201 321
c111 178 199 329 197 339 -3 15 -21 17 -191 20 l-189 2 -32 -32 c-18 -18 -98
-139 -179 -269 l-147 -237 -143 -22 c-78 -12 -152 -24 -164 -27 -13 -3 -29 3
-42 16 -20 20 -21 31 -21 286 0 251 -1 265 -19 275 -11 6 -90 10 -184 10 -146
0 -166 -2 -180 -18z"/>
<path d="M7413 3694 c-4 -10 100 -174 306 -479 178 -265 311 -473 311 -486 0
-12 -56 -107 -125 -211 -69 -104 -125 -197 -125 -208 0 -11 9 -24 19 -30 24
-12 350 -14 383 -1 17 6 145 189 404 573 208 309 419 622 468 695 58 86 87
137 82 148 -5 14 -29 16 -211 13 -203 -3 -205 -3 -229 -28 -13 -14 -111 -153
-217 -310 -105 -157 -195 -289 -199 -293 -4 -4 -99 128 -211 294 -129 192
-215 309 -234 320 -26 17 -53 19 -223 19 -167 0 -193 -2 -199 -16z"/>
<path d="M9277 3692 c-16 -17 -17 -80 -17 -700 0 -741 -3 -703 54 -718 47 -11
302 0 319 15 15 11 17 37 17 167 0 151 0 154 23 159 12 3 236 45 497 94 261
50 483 93 493 97 10 3 22 15 27 25 6 10 10 183 10 432 0 388 -1 415 -18 430
-17 16 -80 17 -704 17 -651 0 -686 -1 -701 -18z m1007 -333 c25 -20 26 -23 26
-137 -1 -121 -6 -139 -45 -159 -11 -6 -146 -34 -299 -63 l-280 -53 -18 24
c-18 21 -19 39 -16 197 3 169 4 174 27 193 22 18 43 19 301 19 265 0 278 -1
304 -21z"/>
</g>
</svg>
