<!--<?xml version="1.0" standalone="no"?>-->
<!--<!DOCTYPE svg PUBLIC "-//W3C//DTD SVG 20010904//EN"-->
<!-- "http://www.w3.org/TR/2001/REC-SVG-20010904/DTD/svg10.dtd">-->
<svg version="1.1"
     id="Layer_1"
     class = 'chebaturochka-logos'
     fill="none"
     stroke-width="1px"
     xmlns="http://www.w3.org/2000/svg"
     xmlns:xlink="http://www.w3.org/1999/xlink"
     x="0px" y="0px"
     viewBox="0 0 433.000000 432.000000"
     preserveAspectRatio="xMidYMid meet"
     xml:space="preserve">


<g >
<path class="st1" d="M1950 4289 c-1001 -102 -1793 -883 -1911 -1883 -15 -130 -6 -472 15
-591 85 -462 291 -852 618 -1171 223 -217 468 -373 751 -478 389 -145 834
-170 1247 -69 422 102 831 357 1112 692 550 658 662 1554 289 2316 -310 631
-897 1062 -1596 1170 -126 19 -401 27 -525 14z m545 -408 c695 -141 1224 -668
1377 -1371 20 -92 22 -133 22 -340 1 -208 -2 -247 -22 -339 -37 -166 -79 -286
-153 -436 -239 -484 -674 -819 -1219 -937 -93 -20 -133 -22 -340 -22 -207 0
-248 2 -340 22 -337 73 -625 223 -861 450 -281 269 -450 581 -521 959 -30 164
-30 437 0 604 128 709 690 1278 1388 1408 160 30 153 29 364 26 153 -2 218 -7
305 -24z"/>
<path class="st1"  d="M2256 3225 c-28 -30 -215 -232 -416 -449 -201 -216 -375 -399 -388
-405 -14 -7 -88 -11 -191 -11 -145 0 -170 -2 -175 -16 -3 -9 -6 -89 -6 -179 0
-123 3 -165 13 -174 8 -6 80 -12 187 -13 l174 -3 426 -460 c234 -253 433 -460
442 -460 8 0 70 49 137 110 94 85 121 115 121 135 0 19 -71 102 -295 345 -162
176 -295 323 -295 327 0 5 224 8 498 8 473 0 500 1 516 19 19 21 125 330 119
349 -4 9 -124 12 -556 12 -304 0 -557 4 -564 8 -8 5 84 111 282 324 161 174
294 322 296 329 1 8 1 19 0 26 -2 17 -240 233 -258 233 -9 0 -39 -25 -67 -55z"/>
</g>
</svg>
